<?xml version="1.0" encoding="utf-8"?>
<!-- Generator: Adobe Illustrator 16.0.2, SVG Export Plug-In . SVG Version: 6.00 Build 0)  -->
<!DOCTYPE svg PUBLIC "-//W3C//DTD SVG 1.1//EN" "http://www.w3.org/Graphics/SVG/1.1/DTD/svg11.dtd">
<svg version="1.1" id="Layer_1" xmlns="http://www.w3.org/2000/svg" xmlns:xlink="http://www.w3.org/1999/xlink" x="0px" y="0px"
	 width="480px" height="80px" viewBox="0 0 480 80" enable-background="new 0 0 480 80" xml:space="preserve">
<polygon id="color_10_" fill="#FFFFFF" points="40,24.7 34,29.8 34,26 30,26 30,33.3 24.6,37.9 25.9,39.4 40,27.3 54.1,39.4 
	55.4,37.9 "/>
<path fill="#FFFFFF" d="M40,30l-11,9.4V54h8v-7h6v7h8V39.4L40,30z M43,42h-6v-4h6V42z"/>
<path fill="#FFFFFF" d="M120.92,37.312c0.002-0.003,0.004-0.006,0.008-0.009c-0.008-0.031-0.014-0.058-0.015-0.078
	C120.915,37.254,120.918,37.282,120.92,37.312z M127.002,43.952c0,0,0-0.001,0-0.002c0,0-0.003,0-0.004,0
	C126.999,43.95,127.001,43.95,127.002,43.952z M127.157,43.971c-0.038-0.006-0.122,0.006-0.156-0.019
	C126.981,44.021,127.012,44.05,127.157,43.971z M121.234,24.167c-8.745,0-15.834,7.088-15.834,15.833s7.089,15.834,15.834,15.834
	S137.068,48.745,137.068,40S129.979,24.167,121.234,24.167z M131.347,30.352c-0.545,0.017-0.926,0.019-1.363,0.32
	c-0.176,0.123-0.297,0.285-0.521,0.347c-0.2,0.057-0.418,0.007-0.617,0.075c-0.721,0.244-0.605,1.785-1.554,1.552
	c-0.444-0.109-0.759-0.636-0.982-0.979c-0.197-0.302-0.558-0.552-0.314-0.93c-0.11,0.028-0.229-0.004-0.338,0.016
	c0.152-0.333,0.662-0.304,0.746-0.475c0.211-0.427-0.581-0.472-0.805-0.531c0.271-0.287,0.406,0.098,0.674,0.032
	c0.256-0.063-0.135-0.401-0.289-0.438c-0.055-0.014-0.958,0.249-0.437-0.218c-0.645-0.412-1.29-0.823-1.935-1.233
	c-0.109,0.457,0.858,0.716,1.174,0.878c-0.048,0.189-0.343,0.465-0.567,0.384c-0.212-0.076-0.125-0.428-0.445-0.392
	c-0.229,0.531,0.482,0.376,0.549,0.701c0.075,0.371-0.269,0.214-0.401,0.208c-0.031-0.001-0.277-0.258-0.292-0.064
	c-0.016,0.229,0.395,0.141,0.422,0.371c-0.477,0.02-0.72-0.153-1.107-0.411c-0.453-0.3-0.688-0.273-1.241-0.273
	c0.166-0.068,0.396-0.119,0.536-0.228c0.078-0.061,0.382-0.356,0.402-0.422c0.086-0.285-0.004-0.264-0.277-0.451
	c-0.242-0.166-0.536-0.463-0.829-0.522c-1.063-0.211-0.328,0.961-1.136,1.123c0.014,0.001,0.029,0.001,0.041,0.001h-0.046
	c0.002,0,0.003-0.001,0.005-0.001c-0.188-0.007-0.537-0.052-0.657,0.047c-0.085,0.069-0.093,0.348-0.188,0.449
	c-0.168,0.18-0.422,0.216-0.623,0.345c-0.197,0.128-0.632,0.454-0.747,0.674c-0.427,0.814,0.96,1.067,1.485,1.305
	c0.237,0.107,0.932,0.255,1.062,0.435c0.173,0.241-0.149,0.468,0.212,0.638c0.115,0.054,0.354,0.065,0.454-0.047
	c0.161-0.183-0.066-0.224-0.105-0.435c-0.075-0.405,0.049-0.243,0.253-0.395c0.416-0.306,0.322-0.326,0.172-0.814
	c-0.068-0.228-0.332-0.862-0.101-1.031c0.3-0.219,0.941,0.119,1.171,0.147c0.27,0.033,0.421,0.404,0.566,0.557
	c0.098,0.101,0.271,0.314,0.44,0.292c0.27-0.037,0.156-0.272,0.313-0.381c0.418-0.29,0.527,0.104,0.694,0.499
	c0.157,0.371,0.307,0.509,0.586,0.747c0.13,0.11,0.698,0.506,0.645,0.75c-0.036,0.164-0.686,0.412-0.859,0.467
	c-0.635,0.201-1.826-0.329-1.955,0.678c0.247-0.092,0.948-0.664,1.158-0.394c0.097,0.123-0.077,0.303-0.036,0.425
	c0.12,0.367,0.402,0.24,0.698,0.18c-0.02,0.013-0.04,0.024-0.062,0.033c0.404-0.208,0.361-0.165,0.549-0.502
	c0.061-0.111,0.15-0.378,0.235-0.457c0.296-0.272,0.341-0.085,0.522,0.125c0.048,0.054,0.5,0.704,0.339,0.671
	c-0.523-0.105-1.028-0.091-1.463,0.195c-0.25,0.166-0.488,0.39-0.788,0.5c-0.072,0.025-0.604,0.077-0.54-0.014
	c0.091-0.132,0.407-0.22,0.532-0.363c-0.345-0.142-0.633,0.171-0.904,0.355c-0.288,0.136-0.354,0.39-0.6,0.612
	c-0.107,0.098-0.31,0.113-0.414,0.241c-0.103,0.124-0.114,0.318-0.211,0.437c-0.067,0.082-0.241,0.032-0.313,0.156
	c-0.092,0.162,0.085,0.313,0.046,0.429c-0.07,0.212-0.475,0.393-0.629,0.545c0.021-0.02,0.041-0.041,0.062-0.061
	c-0.155,0.163-0.353,0.283-0.474,0.472c0.056,0.267,0.23,0.903,0.183,1.049c-0.161,0.481-0.477-0.262-0.604-0.454
	c-0.438-0.66-1.313-0.218-1.912-0.163c-0.765,0.069-1.514,1.063-1.042,1.868c0.228,0.386,0.607,0.535,1.046,0.446
	c0.388-0.079,0.505-0.623,0.87-0.633c0.674-0.019,0.017,0.658-0.042,0.907c-0.054,0.229,0.083,0.251,0.32,0.309
	c0.176,0.042,0.424-0.074,0.575,0.023c0.096,0.064,0.091,0.41,0.222,0.302c-0.259,0.214-0.197,0.724,0.067,0.905
	c0.294,0.205,0.641,0.017,0.949,0.095c0.582,0.147,0.304-0.044,0.813-0.354c0.345-0.205,0.402,0.041,0.638,0.041
	c0.16,0.002,0.263-0.229,0.529-0.164c0.219,0.057,0.307,0.225,0.566,0.265c0.106,0.017,0.218-0.041,0.319-0.029
	c0.483,0.054,0.853,0.362,1.232,0.642c0.314,0.229,0.521,0.184,0.887,0.287c0.269,0.076,0.762,0.463,0.737,0.803
	c-0.005,0.062-0.239,0.367-0.279,0.504c0.069,0.049,0.544-0.059,0.685-0.067c-0.045,0.052-0.37,0.28-0.37,0.16
	c0,0.062,0.229,0.188,0.285,0.228c0.169-0.547,0.446-0.194,0.78-0.06c0.284,0.116,0.635,0.122,0.938,0.194
	c0.257,0.061,0.824,0.234,1.015,0.443c0.229,0.254,0.071,0.666-0.098,0.918c-0.223,0.33-0.558,0.457-0.696,0.846
	c-0.109,0.307-0.026,0.617-0.09,0.959c-0.084,0.461-0.152,0.3-0.449,0.582c-0.25,0.236-0.004,0.195-0.346,0.347
	s-0.643,0.106-0.88,0.483c0.009-0.024,0.018-0.049,0.023-0.072c-0.1,0.141-0.149,0.426-0.197,0.52
	c-0.119,0.24-0.284,0.393-0.474,0.592c-0.071,0.076-0.737,0.985-0.775,0.912c-0.05-0.095-0.575,0.096-0.6-0.039
	c0.021,0.113-0.006,0.074,0.125,0.142c-0.121,0.747-0.437,0.858-1.17,0.866c0.063,0.359-0.267,0.287-0.419,0.479
	c-0.089,0.113-0.132,0.431-0.193,0.576c-0.039,0.093-0.325,0.459-0.325,0.532c0,0.066,0.096,0.164,0.187,0.26
	c-0.518,0.102-1.045,0.174-1.582,0.217c0.102-0.127,0.125-0.236-0.194-0.253c0.086-0.231,0.286-0.364,0.372-0.589
	c0.039-0.105,0.007-0.148,0.041-0.254c0.115-0.363,0.065-0.227,0-0.508c-0.154-0.662,0.055-0.842,0.234-1.448
	c0.186-0.621,0.168-1.429,0.286-2.099c0.057-0.319,0.149-0.986,0.037-1.291c-0.125-0.34-0.677-0.608-0.93-0.838
	c-0.357-0.326-0.549-0.68-0.813-1.082c-0.135-0.205-0.289-0.405-0.394-0.629c-0.227-0.476,0-0.191,0.038-0.473
	c0.035-0.271-0.033-0.516,0.074-0.799c0.119-0.314,0.416-0.512,0.515-0.829c0.087-0.282,0.021-0.638-0.271-0.731
	c-0.161-0.053-0.34,0.069-0.502,0.043c-0.227-0.037-0.482-0.207-0.662-0.342c-0.248-0.189-0.341-0.498-0.605-0.677
	c-0.222-0.149-0.378-0.062-0.615-0.13c-0.247-0.072-0.399-0.378-0.599-0.473c-0.3-0.145-0.468,0.063-0.783,0.02
	c-0.269-0.033-0.678-0.331-0.93-0.444c-0.51-0.229-0.819-0.48-1.023-0.997c-0.175-0.445-0.429-0.652-0.729-1.021
	c-0.304-0.375-0.397-0.694-0.866-0.793c-0.056-0.013,0.114,0.393,0.132,0.425c0.167,0.31,0.418,0.593,0.62,0.882
	c0.297,0.425,0.171,0.505-0.133,0.094c-0.345-0.471-0.746-0.938-1.046-1.436c-0.112-0.188-0.092-0.31-0.278-0.488
	c-0.182-0.173-0.417-0.257-0.6-0.421c-0.654-0.589-0.773-1.375-0.699-2.215c0.023-0.274,0.123-0.493,0.079-0.756
	c-0.035-0.218-0.165-0.398-0.325-0.559c-0.053-0.083-0.184-0.286-0.189-0.3c-0.148-0.247-0.264-0.489-0.501-0.692
	c-0.135-0.117-0.486-0.39-0.816-0.619c1.484-1.85,3.426-3.315,5.651-4.227c0.018,0.112,0.065,0.224,0.138,0.332
	c0.184,0.271,0.357,0.25,0.716,0.324c-0.039,0.415-0.523,0.419-0.853,0.374c-0.392-0.054-0.804-0.184-1.143,0.159
	c0.187,0.113,0.701,0.552,0.633,0.094c0.375-0.019,0.738-0.03,1.104,0.015c0.147,0.018,0.642,0.184,0.773,0.108
	c0.057-0.033,0.116-0.309,0.176-0.394c-0.104,0-0.217-0.053-0.321-0.042c0.243-0.311,0.486-0.067,0.796,0.076
	c-0.341,0.207-0.14,0.703,0.193,0.3c0.274-0.332-0.066-0.572-0.415-0.765c0.352-0.438,0.567-0.478,0.896,0.017
	c0.055-0.306,0.3-0.184,0.557-0.162v-0.076c-0.113,0.002-0.232-0.063-0.345-0.05c0.262-0.418,0.095-0.514,0.469-0.65
	c0.299-0.109,1.15-0.008,1.255-0.288c-0.596,0.115-1.315,0.144-1.853,0.414c-0.232,0.117-0.508,0.486-0.74,0.246
	c-0.237-0.246,0.17-0.641,0.378-0.762h-0.05c0.941-0.201,1.918-0.308,2.92-0.308c0.646,0,1.283,0.047,1.906,0.133
	c-0.215,0.113-0.057,0.19-0.213,0.306c-0.301,0.221-0.833,0.406-1.191,0.544c0.454-0.001,1.555,0.426,1.767-0.211
	c-0.146-0.023-0.293-0.045-0.439-0.068c0.273-0.182,0.579-0.329,0.899-0.437c2.896,0.574,5.469,2.041,7.427,4.102
	C131.375,30.352,131.362,30.352,131.347,30.352z M133.91,35.911c0.026-0.055,0.087-0.074,0.112-0.12
	c0.053-0.097,0.041-0.163,0.105-0.245c0.07-0.09,0.164-0.112,0.242-0.182c0.031-0.027,0.05-0.054,0.064-0.081
	c0.232,0.652,0.419,1.326,0.555,2.018c-0.004,0.005-0.007,0.013-0.012,0.017c-0.034,0.027-0.256,0.06-0.302,0.061
	c-0.161,0.006-0.28-0.101-0.396-0.201c-0.117-0.102-0.256-0.238-0.339-0.37c-0.089-0.142-0.034-0.286-0.027-0.448
	C133.919,36.227,133.853,36.033,133.91,35.911z M134.091,43.172c-0.271-0.236-0.592-0.555-0.785-0.859
	c-0.206-0.326-0.079-0.662-0.064-1.035c0.013-0.314-0.141-0.762-0.007-1.045c0.061-0.129,0.202-0.172,0.259-0.278
	c0.124-0.224,0.097-0.375,0.247-0.567c0.162-0.207,0.38-0.258,0.56-0.421c0.189-0.17,0.185-0.305,0.305-0.522
	c0.087-0.159,0.293-0.425,0.486-0.564c0.106,0.692,0.162,1.401,0.162,2.122c0,1.248-0.167,2.458-0.474,3.609
	C134.516,43.543,134.301,43.354,134.091,43.172z"/>
<g>
	<path fill="#FFFFFF" d="M348.135,34.428l3.35,3.349l-3.35,3.351V34.428z"/>
	<path fill="#FFFFFF" d="M353.081,37.77l-4.944,4.947v10.909h26.068V37.77H353.081z M368.731,48.441h-14.48v-1.676h14.48V48.441z
		 M368.731,44.592h-14.479v-1.674h14.479V44.592z M373.822,33.024l-1.011-5.517l0,0l-25.237,4.63l4.817,4.817L373.822,33.024z
		 M371.049,28.853l1.443,2.49l0.161,0.875l-3.08,0.565l-1.918-3.308L371.049,28.853z M364.115,30.125l1.917,3.307l-3.394,0.623
		l-1.918-3.308L364.115,30.125z M357.18,31.396l1.917,3.309l-3.394,0.621l-1.917-3.307L357.18,31.396z"/>
</g>
<path fill="#FFFFFF" d="M285.46,38.997h4.976V24.064h-4.976V38.997"/>
<path fill="#FFFFFF" d="M290.434,24.064h-4.976v14.933h4.976V24.064"/>
<path fill="#FFFFFF" d="M270.517,38.997h4.983V24.064h-4.983V38.997"/>
<path fill="#FFFFFF" d="M275.502,24.064h-4.983v14.933h4.983V24.064"/>
<path fill="#FFFFFF" d="M280.476,31.257l3.08,8.86l9.363,0.189l-7.461,5.657l2.712,8.973l-7.694-5.354l-7.695,5.354l2.721-8.973
	l-7.471-5.657l9.375-0.189L280.476,31.257"/>
<path fill="#FFFFFF" d="M277.989,35.267h4.974V24.064h-4.974V35.267"/>
<path fill="#FFFFFF" d="M282.963,24.064h-4.974v11.202l2.487-7.171l2.485,7.159L282.963,24.064"/>
<path fill="#FFFFFF" d="M184.002,40.016c0,8.314,6.344,15.143,14.454,15.919v-8.83c-0.586,0-1.066-0.48-1.066-1.066V44.01
	l-5.961,2.911l-1.762-2.627l10.525-8.943l3.63,5.517l-2.166,1.06v4.11c0,0.586-0.481,1.067-1.068,1.067v8.877
	c8.562-0.313,15.41-7.332,15.41-15.967c0-8.836-7.163-15.998-15.998-15.998C191.164,24.018,184.002,31.18,184.002,40.016z
	 M201.472,34.178c0.317-0.882,0.904-1.674,1.749-2.229c2.063-1.359,4.839-0.786,6.197,1.279c1.358,2.064,0.787,4.837-1.277,6.198
	c-0.844,0.555-1.804,0.78-2.739,0.722L201.472,34.178z"/>
<path fill="#FFFFFF" d="M438.5,39.833c-1.473,0-2.666,1.194-2.666,2.667s1.193,2.667,2.666,2.667c1.474,0,2.668-1.194,2.668-2.667
	S439.972,39.833,438.5,39.833"/>
<path fill="#FFFFFF" d="M438.5,31.833c-8.836,0-16,10.667-16,10.667s7.164,10.667,16,10.667c8.837,0,16-10.667,16-10.667
	S447.337,31.833,438.5,31.833 M438.5,49.167c-3.682,0-6.666-2.983-6.666-6.667c0-3.681,2.984-6.667,6.666-6.667
	c3.683,0,6.668,2.985,6.668,6.667C445.168,46.184,442.181,49.167,438.5,49.167"/>
</svg>
